# xmcd CD database file
# Copyright (C) 1997 Ti Kan
#
# Track frame offsets:
#  150
#  7597
#  25650
#  47380
#  61795
#  76030
#  97022
#  113597
#  134570
#  156905
#  180722
#  207830
#  225442
#  244735
#
# Disc length: 3344 seconds
#
# Revision: 2
# Processed by: cddbd v1.4PL0 Copyright (c) Steve Scherf et al.
# Submitted via: Gronk 1.4
#
DISCID=9b0d0e0e
DTITLE=Terry Anderson - What Else Can Go Right
DYEAR=1900
DGENRE=country
TTITLE0=Intro
TTITLE1=Jesus in the Alley
TTITLE2=Beer Drankin' Woman
TTITLE3=Read My Picture
TTITLE4=Gettin' Back Together
TTITLE5=What in the Hell
TTITLE6=College Girls
TTITLE7=No One Knows It
TTITLE8=What Else Can Go Right
TTITLE9=Nothin' On You
TTITLE10=One Good Heart
TTITLE11=Street Fightin' Man
TTITLE12=Rotted on the Vine
TTITLE13=Outro
EXTD=
EXTT0=
EXTT1=
EXTT2=
EXTT3=
EXTT4=
EXTT5=
EXTT6=
EXTT7=
EXTT8=
EXTT9=
EXTT10=
EXTT11=
EXTT12=
EXTT13=
PLAYORDER=
